<?xml version="1.0" standalone="no"?>
<!DOCTYPE svg PUBLIC "-//W3C//DTD SVG 20010904//EN"
 "http://www.w3.org/TR/2001/REC-SVG-20010904/DTD/svg10.dtd">
<svg version="1.0" xmlns="http://www.w3.org/2000/svg"
 width="160.000000pt" height="46.000000pt" viewBox="0 0 160.000000 46.000000"
 preserveAspectRatio="xMidYMid meet">

<g transform="translate(0.000000,46.000000) scale(0.100000,-0.100000)"
fill="#000000" stroke="none">
<path d="M195 380 c-16 -37 -22 -40 -66 -46 -46 -6 -60 -16 -40 -28 8 -5 159
29 168 38 5 5 -29 76 -37 76 -4 0 -15 -18 -25 -40z"/>
<path d="M810 351 c0 -13 -8 -21 -22 -23 l-23 -3 23 -22 c16 -17 22 -35 22
-66 0 -55 22 -87 61 -87 36 0 37 12 4 34 -20 13 -25 25 -25 58 0 27 6 45 18
54 16 13 16 15 0 28 -10 7 -18 21 -18 30 0 9 -8 16 -20 16 -13 0 -20 -7 -20
-19z"/>
<path d="M216 305 c-56 -23 -91 -45 -70 -45 13 1 151 70 139 70 -5 0 -37 -11
-69 -25z"/>
<path d="M282 301 c-62 -35 -111 -74 -134 -110 -28 -41 -22 -45 27 -18 l45 26
45 -26 46 -25 -7 52 c-7 50 -6 52 32 91 31 32 35 39 19 39 -11 0 -44 -13 -73
-29z"/>
<path d="M447 323 c-11 -3 -17 -12 -14 -21 2 -10 10 -15 18 -13 44 12 57 11
73 -4 23 -24 11 -35 -38 -35 -47 0 -66 -13 -66 -45 0 -45 76 -75 108 -43 9 9
12 9 12 0 0 -7 9 -12 20 -12 18 0 20 7 20 65 0 57 -3 69 -25 90 -23 24 -60 30
-108 18z m93 -106 c0 -20 -21 -37 -46 -37 -26 0 -38 14 -30 35 7 19 76 21 76
2z"/>
<path d="M600 240 c0 -83 1 -90 20 -90 18 0 20 7 20 60 0 52 3 62 24 75 19 13
29 14 45 5 18 -9 21 -20 21 -75 0 -58 2 -65 20 -65 18 0 20 7 20 70 0 57 -4
74 -20 90 -22 22 -60 26 -91 10 -13 -7 -19 -7 -19 0 0 5 -9 10 -20 10 -19 0
-20 -7 -20 -90z"/>
<path d="M933 320 c-15 -6 -21 -15 -17 -25 4 -10 12 -14 23 -9 36 15 59 15 75
-1 23 -24 11 -35 -38 -35 -50 0 -69 -16 -64 -57 4 -35 45 -52 88 -36 21 8 30
8 33 0 2 -6 11 -8 21 -4 16 6 18 17 14 73 -3 55 -8 70 -27 85 -25 20 -71 24
-108 9z m90 -96 c12 -13 -14 -44 -37 -44 -31 0 -50 22 -34 38 13 13 60 16 71
6z"/>
<path d="M1090 239 c0 -81 2 -90 18 -87 13 2 18 16 22 63 4 52 8 61 31 72 15
7 32 20 39 28 10 13 9 15 -9 15 -12 0 -32 -5 -44 -11 -16 -9 -22 -9 -25 0 -2
6 -10 11 -18 11 -11 0 -14 -19 -14 -91z"/>
<path d="M1235 318 c-31 -17 -45 -39 -45 -74 0 -46 9 -63 41 -79 36 -19 80
-19 105 -1 29 22 6 41 -29 25 -22 -10 -31 -9 -52 5 -41 27 -29 36 45 36 l70 0
-6 28 c-13 57 -78 88 -129 60z m77 -35 c29 -26 22 -33 -32 -33 -53 0 -68 18
-32 39 25 15 43 13 64 -6z"/>
<path d="M1402 314 c-24 -17 -29 -56 -9 -72 6 -6 29 -13 50 -17 44 -9 52 -18
31 -36 -12 -10 -25 -10 -54 -2 -31 8 -40 7 -44 -4 -12 -30 84 -44 122 -17 37
26 24 84 -19 84 -10 0 -30 5 -44 10 -23 9 -25 13 -14 26 9 12 23 14 50 10 27
-4 38 -2 42 8 11 27 -75 35 -111 10z"/>
<path d="M601 78 c1 -19 2 -20 6 -4 4 15 7 16 15 5 8 -12 9 -12 6 0 -7 25 -28
24 -27 -1z"/>
<path d="M892 83 c-9 -15 -7 -19 9 -19 21 0 23 4 10 25 -7 11 -11 10 -19 -6z"/>
<path d="M1035 91 c-8 -15 3 -31 21 -31 9 0 14 7 12 17 -4 20 -24 28 -33 14z
m25 -11 c0 -5 -4 -10 -10 -10 -5 0 -10 5 -10 10 0 6 5 10 10 10 6 0 10 -4 10
-10z"/>
<path d="M1129 92 c9 -7 10 -11 2 -15 -7 -4 -8 -5 0 -3 15 2 13 20 -3 24 -10
3 -10 2 1 -6z"/>
<path d="M1286 84 c-8 -20 -4 -25 11 -16 7 4 9 13 4 21 -6 10 -10 9 -15 -5z"/>
<path d="M1375 90 c-8 -13 3 -30 18 -30 7 0 6 4 -3 10 -13 9 -13 11 0 20 9 6
10 10 3 10 -6 0 -15 -4 -18 -10z"/>
<path d="M747 77 c-3 -7 3 -13 13 -13 10 0 16 6 13 13 -3 7 -9 13 -13 13 -4 0
-10 -6 -13 -13z"/>
<path d="M960 74 c0 -8 5 -12 10 -9 6 4 8 11 5 16 -9 14 -15 11 -15 -7z"/>
<path d="M1190 75 c0 -8 7 -11 20 -8 11 3 20 8 20 12 0 4 -9 7 -20 8 -11 1
-20 -4 -20 -12z"/>
</g>
</svg>
